<mxfile host="65bd71144e">
    <diagram id="vGPTPKyQnhFcPzrqj7Yi" name="Page-1">
        <mxGraphModel dx="2434" dy="1349" grid="1" gridSize="10" guides="1" tooltips="1" connect="1" arrows="1" fold="1" page="1" pageScale="1" pageWidth="827" pageHeight="1169" math="0" shadow="0">
            <root>
                <mxCell id="0"/>
                <mxCell id="1" parent="0"/>
                <mxCell id="3" value="" style="rounded=0;whiteSpace=wrap;html=1;" parent="1" vertex="1">
                    <mxGeometry x="170" y="50" width="610" height="1650" as="geometry"/>
                </mxCell>
                <mxCell id="4" value="" style="rounded=0;whiteSpace=wrap;html=1;" parent="1" vertex="1">
                    <mxGeometry x="189" y="85" width="60" height="10" as="geometry"/>
                </mxCell>
                <mxCell id="5" value="" style="rounded=0;whiteSpace=wrap;html=1;" parent="1" vertex="1">
                    <mxGeometry x="189" y="105" width="60" height="10" as="geometry"/>
                </mxCell>
                <mxCell id="6" value="" style="rounded=0;whiteSpace=wrap;html=1;" parent="1" vertex="1">
                    <mxGeometry x="189" y="125" width="60" height="10" as="geometry"/>
                </mxCell>
                <mxCell id="7" value="&lt;font style=&quot;font-size: 48px;&quot;&gt;HO&amp;amp;VAN&lt;/font&gt;" style="text;html=1;strokeColor=none;fillColor=none;align=center;verticalAlign=middle;whiteSpace=wrap;rounded=0;" parent="1" vertex="1">
                    <mxGeometry x="384" y="90" width="190" height="40" as="geometry"/>
                </mxCell>
                <mxCell id="8" value="LOGO" style="ellipse;whiteSpace=wrap;html=1;aspect=fixed;fontSize=18;" parent="1" vertex="1">
                    <mxGeometry x="709" y="80" width="60" height="60" as="geometry"/>
                </mxCell>
                <mxCell id="9" value="Carousselle photo" style="rounded=0;whiteSpace=wrap;html=1;fontSize=18;" parent="1" vertex="1">
                    <mxGeometry x="170" y="150" width="610" height="110" as="geometry"/>
                </mxCell>
                <mxCell id="10" value="main" style="text;html=1;strokeColor=none;fillColor=none;align=center;verticalAlign=middle;whiteSpace=wrap;rounded=0;shadow=0;fontSize=18;" parent="1" vertex="1">
                    <mxGeometry x="170" y="300" width="60" height="30" as="geometry"/>
                </mxCell>
                <mxCell id="11" value="header" style="text;html=1;strokeColor=none;fillColor=none;align=center;verticalAlign=middle;whiteSpace=wrap;rounded=0;shadow=0;fontSize=18;" parent="1" vertex="1">
                    <mxGeometry x="170" y="50" width="60" height="30" as="geometry"/>
                </mxCell>
                <mxCell id="13" value="Google map" style="rounded=0;whiteSpace=wrap;html=1;shadow=0;fontSize=18;" parent="1" vertex="1">
                    <mxGeometry x="170" y="1220" width="610" height="170" as="geometry"/>
                </mxCell>
                <mxCell id="14" value="" style="shape=image;verticalLabelPosition=bottom;labelBackgroundColor=default;verticalAlign=top;aspect=fixed;imageAspect=0;image=data:image/png,iVBORw0KGgoAAAANSUhEUgAAAPsAAAAsCAYAAACjSc4xAAAAAXNSR0IArs4c6QAAAARnQU1BAACxjwv8YQUAAAAJcEhZcwAADsMAAA7DAcdvqGQAAAmqSURBVHhe7ZwFqFRNG8cfuzCwC8XuAAMFW+zuLsTAQhTFQgULbEURu1vBbhG7C7u7u9vve3/jGd/zruuNPV6ddecHh50zu3vZvef858nZaP/7B7FYLH890Z1Hi8Xyl2PFbrGECFbsFkuIYMVusYQIVuwWS4hgxW6xhAhW7BZLiGDFbrGECLapJgxOnz4to0aNkiNHjsiHDx+cWZG1a9dKrly5nLM/z5cvX2TKlCmyZMkSuX//vjMbcaJFiyZ58uSRbt26Sbly5ZxZsxg3bpysWrVKdu7cKS1atJBkyZLJ+PHjnWeDl0+fPsmmTZtk48aNcuLECXn48KGa5/vlzp1bKleuLHXr1pVYsWKpeS9Ysf+Eq1evSr169eTVq1fOzL+YJvbu3bvLunXrnDNvIKDq1as7Z+Zw8eJFqVq1qmzYsEHd/GPGjJEKFSrI48ePJWnSpBIzZkznlcHD4cOHpVevXnL79m1nxj/p06eXCRMmSIECBZyZwPAkdqxdnDhxnLOf8/XrV2V5li1bJnfu3JGUKVMqIXXu3Fnixo0rBw4ckESJEqmVzBT69u0ry5cvd87+i0liP3r0qDRq1Mg5ixwNGjSQ7Nmzq/H169dl4cKFyqLs27dPYsSIoeZNomLFipIlSxbZv3+/7N27V1q1aiWnTp2S1KlTq2vSrFkzad26tWzbtk3SpUsnAwYMcN5pHnzenj17Km1gtZs3b668qgwZMihP7fLly7J69WpZv369ej2vmTdvnhQpUkSdB4KnmL1p06bKAoYFX6ZLly7KDUPogKuC+OvXr6++YL9+/SRz5szqOVM4duyYM/pG0aJFlZvLkSJFCmf2z8ONHyj879u0aaMOrCY8efJELly4oMamUaVKFdm6dauUKVNG3Uu4vVh6PjOLXrDA/7d3795KGyxeLE79+/eX4sWLq0UKwXNtsOboBnD30dG7d+/UeSAELPZnz57JyZMnpWHDhnL27Fln9ke4GFu2bHHO/sv58+fVRcMdmzlzpjNrBu/fv3dG32BB0mJPnjy5M/vnef78uTP6dfgLXUwAyw6IHusHeJZYvc+fP6vzYGDEiBFKvHizc+bMUQJ/8eKF0srNmzedV32jRo0a0rhxYzVmUZs/f74aB0LAYufDAjcb7uCCBQvUSuXL5s2bnZF/uGis1vwNkzHRrfUK1454kePRo0fOrLkkTpxYPSZJkkQ9BiMYtz179qhx27ZtJU2aNPLgwQO1gGFIqlWrpvIQbmrVquWMRGklUAIWO9ZN/9OJ3QcPHiw1a9ZUiSK3Vbx7964z8g9/gywycbwJEEvNnj1bXr586cx8g/iJeQ7fi2E6JK+yZcumLIgb8hK4xBwk+YKJhAkTqsdz587J27dvJV68eN/Pr1y5osYm4g4PsdqAdddZeNz0S5cuqbGGBJ3G1/JHhoDFHj16dBXrucEt56YhiUCiBHcFdz8sEiRIYIzQYdq0aTJs2LAfXNkZM2aoeQ4vcdPvhthv165dqrRD2Wrp0qU/iD5YiB07tkqMxo8fX9KmTau8QRasUqVKSeHChaVgwYIqjs+YMaNReRU3bkOhRcwC5cb3+mgvGrx4mAGLHYvNP99fYg0x4KoQh4e3EukVOpgwaXHSIGqSnhyMIW/evOrc/XkLFSoks2bN+l6qYnHW7zN9EeB74Hnly5dPGRuMCT0Q06dPV1WdIUOGyIoVK9R5hw4dnHeZhTvfo3s3WLw0VBZI0LnRiW2gzBgoAYsdkY4ePTrcbHx4ZMqUyRkFB3zviJQbfzfcICQ6OXQIQmnKnyUgA6wXBDwr/T4SRqbBdyE01CFUZI5Fixap0pxJ5MiRwxmJ8rYAj0Sjr4sbt+vvpTztSezly5d3zgIH98skKHdgPXytNyUQ5leuXOnMmAuZXUiVKpV69AduMDx9+lQ9mgjeYenSpaVPnz4yceJEdXB9dDilDxpssPK+8wMHDpQ6deoo78WUbD19DZRxYezYserRnRwlf+KGpPeaNWucsx+fjwwBix1oWgjrhooIZcuWdUZmQFhCXOjbnpg1a1Y1b1o/gD9wBSGserl+Tr/WNEhYdezYUeVOunbtqvoJ6Djz1ylI85PbYvrCe1goTAHDkTNnTpWJh0OHDqlH8A1raXTSCUcMEB5YoHgSO9aBul+gFp4Vzjc+sXiHhBWQ5fWtKsDBgweVeOiJx3KaCC6uruqwPwErTeMMlo2bnioOOQZdEdLnwCMNKu4QhljeFDCQWGuSvuS33Ak6FoJ79+4p74xkMXkIDRUvLz3ynsQOO3bskO3btztnkcPUJEqwQxMGFpvEDq20tL/Sz8CNhaVo166deh095u6yjkncunXLGf0In7927dqqLq1jXM5pSiETTymXe6tHjx7qOdClLVMgwUjfAN6K7k+hfIiVL1mypEqkjhw58vtzdNzppqJA8Sx2enpxSSIL3oCpViXY4abBKpC5pWbbsmVLdY3IYg8aNEjVpcmVYCn+FvBiKPPi1dAshGiCIeSimqCZPHmyWoBZCIDHEiVKyOLFi6V9+/ZqzguexU5mmg9D22xEs9S4McOHD3fOLFEBWVtiVWrRlHb0fidcXKwEFl43ovxN4LoT91Ja1JtITEaLnUoIwsaa04a+e/duOXPmjFrEvGx+ceNZ7MA/d+jQocpqhCd4YivKIuyuskQtxLZkqY8fP65ceW4sGmuwEv5Kcib1l9PDER6+9xrfido1MS+NRLriYDK6NIjbri06izDJOy/xuT8CFjvJkzdv3qh9xnPnzlWtsmwWcf/Igy+4VWxz1dsqLd7RJcKwMu+IQCe1fgau77Vr19TYhI0+vvfIx48fVfgB5CKaNGmi8hLMv379WsXvQGKP8IWknrt700SXnm463Y1Jb3xUE/B+diwEtcyINNWwUtFa26lTJ9XpFAyQT3B3LlFjN+kHKzSUZfg1Ey4j+7krVark12qHBRn7qVOnqlZTRPGzXYq/E4wJm0Ju3LjhzEQcLCSegXuPBg1gJPFMgvuL+4yFmCR3VIdVnn68gkwhiRBiI1xFLgwrFTcb1oF2TTKL7NrxrR+aTrCIHSZNmvRLfqKJ2J4QC5fSBNiNR++7lz37eDNk5fntBdPAshcrVkyV2/SmmKjE/izVT6B7S7tYwEUxecFi6yPtoZSs3BsnIgIiz58/v4rlaaU1DUQRyBZcrDulOFN/sgpjSXcgSbnfgRW7xRIi/JJsvMViMR8rdoslRLBit1hCBCt2iyVEsGK3WEIEK3aLJUSwYrdYQgQrdoslRLBit1hCBCt2iyVEsGK3WEIEK3aLJUSwYrdYQgKR/wOGbkz9SECslwAAAABJRU5ErkJggg==;" parent="1" vertex="1">
                    <mxGeometry x="170" y="1500" width="610" height="106.93" as="geometry"/>
                </mxCell>
                <mxCell id="15" value="" style="rounded=0;whiteSpace=wrap;html=1;shadow=0;fontSize=18;" parent="1" vertex="1">
                    <mxGeometry x="180" y="330" width="590" height="840" as="geometry"/>
                </mxCell>
                <mxCell id="16" value="form" style="text;html=1;strokeColor=none;fillColor=none;align=center;verticalAlign=middle;whiteSpace=wrap;rounded=0;shadow=0;fontSize=18;" parent="1" vertex="1">
                    <mxGeometry x="190" y="330" width="60" height="30" as="geometry"/>
                </mxCell>
                <mxCell id="22" value="Copyright 2023 ho&amp;amp;vanclothing.com Tous droits réservés" style="rounded=0;whiteSpace=wrap;html=1;shadow=0;fontSize=18;" parent="1" vertex="1">
                    <mxGeometry x="170" y="1610" width="610" height="60" as="geometry"/>
                </mxCell>
                <mxCell id="23" value="Search bar" style="rounded=0;whiteSpace=wrap;html=1;" parent="1" vertex="1">
                    <mxGeometry x="170" y="260" width="610" height="40" as="geometry"/>
                </mxCell>
                <mxCell id="24" value="" style="shape=image;verticalLabelPosition=bottom;labelBackgroundColor=default;verticalAlign=top;aspect=fixed;imageAspect=0;image=data:image/png,iVBORw0KGgoAAAANSUhEUgAAABoAAAAZCAYAAAAv3j5gAAAAAXNSR0IArs4c6QAAAARnQU1BAACxjwv8YQUAAAAJcEhZcwAADsMAAA7DAcdvqGQAAAEzSURBVEhLY/wPBAx0AExQmuZg1CKyAd0sIpjqbt97zLBtz3GGJ89fMXz//pPBwlibwRyIVZVkoSqIA3gt2rbnGMP+I+fABgsL8oHF3r7/xHDy7FUGRxsjBi8XK7AYUQBkETbw+OnL/yX1k8E0OgCJZZf3YJXDBXDGESi4QD6RkRKDiiAASMzB2gishliA06LvP37AgwsbAMmB1BALcFr05NlrKAs3uH3vCZRFGOC0SE9bBRzxuABIDhS0xAKcFoGSMSh1PXn2CiqCACCxA0fPMTgC44lYQDB5gyLc0cYYJXnvP3IWzI4J9QA7iBhAMMOCXA+y7NK1O2C+npYKOA+BxNduOUC0ZRTVR4tX7wAHLzGWUWQRCKzZvJ+Bi5OdYClBsUXEApypjtpg1CKywXCziIEBACOE41NzUGwbAAAAAElFTkSuQmCC;" parent="1" vertex="1">
                    <mxGeometry x="172.2" y="261.83" width="37.8" height="36.35" as="geometry"/>
                </mxCell>
                <mxCell id="40" value="&lt;br&gt;&lt;div style=&quot;text-align: justify;&quot;&gt;&lt;ol&gt;&lt;li&gt;&lt;span style=&quot;background-color: initial;&quot;&gt;- succursal&amp;nbsp;&lt;/span&gt;&lt;/li&gt;&lt;li&gt;&lt;span style=&quot;background-color: initial;&quot;&gt;- succursal&lt;br&gt;&lt;/span&gt;&lt;/li&gt;&lt;li&gt;&lt;span style=&quot;background-color: initial;&quot;&gt;- succursal&lt;br&gt;&lt;/span&gt;&lt;/li&gt;&lt;/ol&gt;&lt;/div&gt;&lt;br&gt;" style="rounded=0;whiteSpace=wrap;html=1;shadow=0;fontSize=18;align=left;" parent="1" vertex="1">
                    <mxGeometry x="172.20000000000005" y="1390" width="607.8" height="110" as="geometry"/>
                </mxCell>
                <mxCell id="41" value="" style="rounded=0;whiteSpace=wrap;html=1;" parent="1" vertex="1">
                    <mxGeometry x="380" y="380" width="350" height="40" as="geometry"/>
                </mxCell>
                <mxCell id="42" value="" style="rounded=0;whiteSpace=wrap;html=1;" parent="1" vertex="1">
                    <mxGeometry x="380" y="430" width="350" height="40" as="geometry"/>
                </mxCell>
                <mxCell id="43" value="" style="rounded=0;whiteSpace=wrap;html=1;" parent="1" vertex="1">
                    <mxGeometry x="380" y="490" width="350" height="40" as="geometry"/>
                </mxCell>
                <mxCell id="44" value="" style="rounded=0;whiteSpace=wrap;html=1;" parent="1" vertex="1">
                    <mxGeometry x="571" y="660" width="159" height="40" as="geometry"/>
                </mxCell>
                <mxCell id="45" value="" style="rounded=0;whiteSpace=wrap;html=1;" parent="1" vertex="1">
                    <mxGeometry x="380" y="550" width="350" height="40" as="geometry"/>
                </mxCell>
                <mxCell id="46" value="&lt;span style=&quot;font-size: 24px;&quot;&gt;faite votre choix&lt;/span&gt;" style="rounded=0;whiteSpace=wrap;html=1;" parent="1" vertex="1">
                    <mxGeometry x="380" y="610" width="350" height="40" as="geometry"/>
                </mxCell>
                <mxCell id="47" value="francais" style="rounded=0;whiteSpace=wrap;html=1;fontSize=24;" parent="1" vertex="1">
                    <mxGeometry x="230" y="720" width="280" height="50" as="geometry"/>
                </mxCell>
                <mxCell id="48" value="anglais" style="rounded=0;whiteSpace=wrap;html=1;fontSize=24;" parent="1" vertex="1">
                    <mxGeometry x="229" y="780" width="280" height="50" as="geometry"/>
                </mxCell>
                <mxCell id="49" value="vietnamien" style="rounded=0;whiteSpace=wrap;html=1;fontSize=24;" parent="1" vertex="1">
                    <mxGeometry x="230" y="840" width="280" height="50" as="geometry"/>
                </mxCell>
                <mxCell id="50" value="" style="ellipse;whiteSpace=wrap;html=1;aspect=fixed;fontSize=24;" parent="1" vertex="1">
                    <mxGeometry x="650" y="730" width="30" height="30" as="geometry"/>
                </mxCell>
                <mxCell id="51" value="" style="ellipse;whiteSpace=wrap;html=1;aspect=fixed;fontSize=24;" parent="1" vertex="1">
                    <mxGeometry x="650" y="790" width="30" height="30" as="geometry"/>
                </mxCell>
                <mxCell id="52" value="" style="ellipse;whiteSpace=wrap;html=1;aspect=fixed;fontSize=24;" parent="1" vertex="1">
                    <mxGeometry x="650" y="850" width="30" height="30" as="geometry"/>
                </mxCell>
                <mxCell id="53" value="recevoir des email de promo" style="rounded=0;whiteSpace=wrap;html=1;fontSize=24;" parent="1" vertex="1">
                    <mxGeometry x="229" y="920" width="360" height="50" as="geometry"/>
                </mxCell>
                <mxCell id="55" value="" style="rounded=0;whiteSpace=wrap;html=1;fontSize=24;" parent="1" vertex="1">
                    <mxGeometry x="650" y="930" width="30" height="30" as="geometry"/>
                </mxCell>
                <mxCell id="56" value="&lt;font style=&quot;font-size: 72px;&quot;&gt;submit&lt;/font&gt;" style="rounded=0;whiteSpace=wrap;html=1;fontSize=24;" parent="1" vertex="1">
                    <mxGeometry x="229" y="1000" width="501" height="130" as="geometry"/>
                </mxCell>
                <mxCell id="60" value="&lt;font style=&quot;font-size: 24px;&quot;&gt;footer&lt;/font&gt;" style="text;html=1;strokeColor=none;fillColor=none;align=center;verticalAlign=middle;whiteSpace=wrap;rounded=0;fontSize=12;" parent="1" vertex="1">
                    <mxGeometry x="180" y="1180" width="60" height="30" as="geometry"/>
                </mxCell>
                <mxCell id="61" value="&lt;font style=&quot;font-size: 24px;&quot;&gt;Nom&lt;/font&gt;" style="text;html=1;strokeColor=none;fillColor=none;align=center;verticalAlign=middle;whiteSpace=wrap;rounded=0;" vertex="1" parent="1">
                    <mxGeometry x="200" y="385" width="60" height="30" as="geometry"/>
                </mxCell>
                <mxCell id="62" value="&lt;span style=&quot;font-size: 24px;&quot;&gt;Prénom&lt;/span&gt;" style="text;html=1;strokeColor=none;fillColor=none;align=center;verticalAlign=middle;whiteSpace=wrap;rounded=0;" vertex="1" parent="1">
                    <mxGeometry x="210" y="435" width="60" height="30" as="geometry"/>
                </mxCell>
                <mxCell id="63" value="&lt;span style=&quot;font-size: 24px;&quot;&gt;Téléphone&lt;/span&gt;" style="text;html=1;strokeColor=none;fillColor=none;align=center;verticalAlign=middle;whiteSpace=wrap;rounded=0;" vertex="1" parent="1">
                    <mxGeometry x="220" y="495" width="60" height="30" as="geometry"/>
                </mxCell>
                <mxCell id="64" value="&lt;font style=&quot;font-size: 24px;&quot;&gt;nombre article en commande&lt;/font&gt;&lt;span style=&quot;color: rgba(0, 0, 0, 0); font-family: monospace; font-size: 0px; text-align: start;&quot;&gt;%3CmxGraphModel%3E%3Croot%3E%3CmxCell%20id%3D%220%22%2F%3E%3CmxCell%20id%3D%221%22%20parent%3D%220%22%2F%3E%3CmxCell%20id%3D%222%22%20value%3D%22%26lt%3Bfont%20style%3D%26quot%3Bfont-size%3A%2024px%3B%26quot%3B%26gt%3Bnom%26lt%3B%2Ffont%26gt%3B%22%20style%3D%22rounded%3D0%3BwhiteSpace%3Dwrap%3Bhtml%3D1%3B%22%20vertex%3D%221%22%20parent%3D%221%22%3E%3CmxGeometry%20x%3D%22230%22%20y%3D%22380%22%20width%3D%22500%22%20height%3D%2240%22%20as%3D%22geometry%22%2F%3E%3C%2FmxCell%3E%3C%2Froot%3E%3C%2FmxGraphModel%3E&lt;/span&gt;" style="text;html=1;strokeColor=none;fillColor=none;align=center;verticalAlign=middle;whiteSpace=wrap;rounded=0;" vertex="1" parent="1">
                    <mxGeometry x="200" y="665" width="320" height="30" as="geometry"/>
                </mxCell>
                <mxCell id="65" value="&lt;span style=&quot;font-size: 24px;&quot;&gt;Courriel&lt;/span&gt;" style="text;html=1;strokeColor=none;fillColor=none;align=center;verticalAlign=middle;whiteSpace=wrap;rounded=0;" vertex="1" parent="1">
                    <mxGeometry x="210" y="555" width="60" height="30" as="geometry"/>
                </mxCell>
                <mxCell id="66" value="&lt;span style=&quot;font-size: 24px;&quot;&gt;Liste&lt;/span&gt;" style="text;html=1;strokeColor=none;fillColor=none;align=center;verticalAlign=middle;whiteSpace=wrap;rounded=0;" vertex="1" parent="1">
                    <mxGeometry x="200" y="615" width="60" height="30" as="geometry"/>
                </mxCell>
            </root>
        </mxGraphModel>
    </diagram>
</mxfile>